/vscmnt/brussel_pixiu_data/_data_brussel/112/vsc11236/PredSimResults/SUBJ11mtu3D/weighted-trackIG/worker_02.mot
version=1
nRows=10
nColumns=50
inDegrees=yes
endheader
                time	         pelvis_tilt	         pelvis_list	     pelvis_rotation	           pelvis_tx	           pelvis_ty	           pelvis_tz	       hip_flexion_r	     hip_adduction_r	      hip_rotation_r	        knee_angle_r	       ankle_angle_r	         mtp_angle_r	       hip_flexion_l	     hip_adduction_l	      hip_rotation_l	        knee_angle_l	       ankle_angle_l	         mtp_angle_l	    lumbar_extension	      lumbar_bending	     lumbar_rotation	 ercspn_r/activation	 intobl_r/activation	 extobl_r/activation	    abd_r/activation	    add_r/activation	hamstrings_r/activation	bifemsh_r/activation	glut_max_r/activation	iliopsoas_r/activation	rect_fem_r/activation	  vasti_r/activation	gastroc_r/activation	 soleus_r/activation	tib_ant_r/activation	 ercspn_l/activation	 intobl_l/activation	 extobl_l/activation	    abd_l/activation	    add_l/activation	hamstrings_l/activation	bifemsh_l/activation	glut_max_l/activation	iliopsoas_l/activation	rect_fem_l/activation	  vasti_l/activation	gastroc_l/activation	 soleus_l/activation	tib_ant_l/activation	
          0.00000000	         -5.94685127	         -5.01975459	          8.25521494	          0.00000000	          0.94072617	         -0.01744682	         31.15701222	          1.36765609	         -4.23855063	         -4.04796329	          5.47412474	          0.20738476	        -12.23982726	         -5.57322501	          4.29234295	         -7.42551216	         12.45686814	         26.96246842	         -4.16438549	          3.17055850	         -2.03576089	          0.09021204	          0.15422798	          0.02643416	          0.01237143	          0.08716909	          0.04916874	          0.21402654	          0.01133937	          0.08729799	          0.01111193	          0.01000088	          0.01383777	          0.01000071	          0.28019794	          0.03170003	          0.01000095	          0.01000090	          0.05425499	          0.01996658	          0.02436250	          0.12885474	          0.05425381	          0.43014981	          0.01001457	          0.01001031	          0.34100540	          0.25669578	          0.01050390	
          0.01412380	         -6.08112690	         -4.86577831	          8.29502224	          0.01792896	          0.93856337	         -0.01669633	         31.19241856	          1.40158409	         -4.29235617	         -5.46708617	          5.00292152	          0.21813650	        -12.47652134	         -5.49158849	          3.88857465	         -8.74656476	         11.92300214	         28.95499542	         -3.86023039	          3.43991199	         -2.25354325	          0.07302400	          0.12524976	          0.02139742	          0.01001469	          0.12404578	          0.04564740	          0.17324850	          0.05773663	          0.07066408	          0.01000674	          0.01000191	          0.02041204	          0.01526521	          0.29385394	          0.06876214	          0.01000119	          0.01000382	          0.04391721	          0.04020400	          0.01973171	          0.10430304	          0.04391640	          0.43052550	          0.01001610	          0.01362491	          0.31180941	          0.24227470	          0.01000029	
          0.02824761	         -6.19031899	         -4.70535573	          8.28135447	          0.03627627	          0.93671565	         -0.01585557	         31.03985627	          1.42362906	         -4.32671847	         -6.88759245	          4.54426565	          0.18852995	        -12.56414886	         -5.39540361	          3.45960967	        -10.41072802	         11.24715554	         31.03476893	         -3.54217075	          3.71776851	         -2.45187819	          0.07241800	          0.10138705	          0.01732041	          0.06343491	          0.11523131	          0.05267725	          0.14024093	          0.07908863	          0.05719961	          0.01000215	          0.01000053	          0.01652305	          0.01235679	          0.33670647	          0.07954138	          0.01000058	          0.01000248	          0.03554918	          0.03254497	          0.01597744	          0.08442949	          0.03554859	          0.41732556	          0.01006338	          0.02327254	          0.27078046	          0.21843397	          0.01000025	
          0.04237141	         -6.27649475	         -4.53680980	          8.21586914	          0.05473747	          0.93545741	         -0.01491295	         30.73919173	          1.44862136	         -4.38356039	         -8.06917235	          3.92604651	          0.15987170	        -12.41782152	         -5.28153951	          3.01415346	        -12.50955726	         10.37096948	         33.17554892	         -3.23964154	          3.99821288	         -2.62297400	          0.08014793	          0.08206884	          0.01402028	          0.11609149	          0.14390568	          0.04830026	          0.11352043	          0.10392857	          0.04630070	          0.01000274	          0.01000125	          0.01337533	          0.01000341	          0.36781393	          0.11114156	          0.01000068	          0.01000223	          0.02877560	          0.03914615	          0.01956348	          0.06834280	          0.02877517	          0.39908513	          0.01233669	          0.01883910	          0.21918524	          0.17681342	          0.01000023	
          0.05649521	         -6.33803791	         -4.36573415	          8.10367031	          0.07306162	          0.93494269	         -0.01388589	         30.38567973	          1.48222410	         -4.46569436	         -9.21040569	          3.41577292	          0.12325152	        -11.95236826	         -5.15362693	          2.54964882	        -15.16065858	          9.29835252	         35.26367135	         -2.97225587	          4.28751634	         -2.76239262	          0.07893227	          0.06643147	          0.01134907	          0.14149004	          0.16218900	          0.04543029	          0.09189102	          0.11470552	          0.03747850	          0.01000290	          0.03962121	          0.01082802	          0.01000398	          0.39478365	          0.13681015	          0.01000068	          0.01000261	          0.02329266	          0.06142352	          0.01906124	          0.05532185	          0.02329233	          0.36499234	          0.01000692	          0.01524965	          0.17742099	          0.14312288	          0.01000025	
          0.07061901	         -6.37379942	         -4.18846360	          7.94722256	          0.09111932	          0.93518913	         -0.01280035	         29.97274500	          1.51919484	         -4.56189914	        -10.30051409	          3.07230104	          0.09460333	        -11.13076678	         -5.01036772	          2.05442666	        -18.40204720	          8.02420427	         37.12565137	         -2.74691400	          4.58088731	         -2.86662700	          0.07812735	          0.05377368	          0.01000088	          0.14706777	          0.13754916	          0.04972676	          0.07438299	          0.10866160	          0.03033731	          0.01000220	          0.08853254	          0.01000347	          0.01000342	          0.40319159	          0.14112963	          0.01000097	          0.01000223	          0.01885444	          0.07571159	          0.02607222	          0.04478471	          0.01885419	          0.31584899	          0.01000176	          0.01234411	          0.14361462	          0.11585182	          0.01000051	
          0.08474282	         -6.38536216	         -3.99437635	          7.75073598	          0.10882063	          0.93617282	         -0.01169416	         29.46172955	          1.55197273	         -4.63591855	        -11.25438466	          2.87225701	          0.06994317	         -9.96241833	         -4.85025893	          1.51990898	        -22.18391578	          6.58158267	         38.43411812	         -2.56880266	          4.86806322	         -2.93479314	          0.06417199	          0.04352777	          0.01000112	          0.14151148	          0.11134056	          0.04690707	          0.06021094	          0.10648109	          0.02455683	          0.01000207	          0.14093925	          0.01000904	          0.01000650	          0.40112683	          0.14971891	          0.01000110	          0.01000367	          0.01526190	          0.08916340	          0.02110617	          0.04589520	          0.01526171	          0.26020366	          0.01000115	          0.01000024	          0.11624982	          0.09377706	          0.01000099	
          0.09886662	         -6.37539291	         -3.77353493	          7.51643458	          0.12610780	          0.93790133	         -0.01059385	         28.80394993	          1.57746619	         -4.65022582	        -11.97606338	          2.80425321	          0.05187021	         -8.47668822	         -4.67733530	          0.94080409	        -26.42976917	          5.05450024	         38.76313625	         -2.44151779	          5.13707525	         -2.96687043	          0.05325493	          0.03523417	          0.01000097	          0.13056551	          0.09012558	          0.04452341	          0.04873916	          0.10174463	          0.01987778	          0.01000205	          0.17375318	          0.01001914	          0.01001335	          0.39058404	          0.15623557	          0.01000097	          0.01001377	          0.01235390	          0.09732919	          0.01708523	          0.06317671	          0.01235376	          0.21062457	          0.01000098	          0.01000017	          0.09409921	          0.07590851	          0.01000086	
          0.11299042	         -6.34633982	         -3.51244328	          7.24290899	          0.14299337	          0.94032630	         -0.00951645	         27.96568043	          1.58409005	         -4.59295701	        -12.40288398	          2.83936225	          0.04202425	         -6.73107013	         -4.48954492	          0.33816601	        -30.98729963	          3.35184361	         38.09684895	         -2.36177629	          5.37040088	         -2.96206515	          0.04394685	          0.02852083	          0.01000094	          0.11279600	          0.07295290	          0.04323488	          0.03945309	          0.09340130	          0.01609030	          0.01000209	          0.19123075	          0.01000409	          0.01000400	          0.37564003	          0.15788623	          0.01000085	          0.02575177	          0.01000019	          0.10858038	          0.01383029	          0.07477020	          0.01000021	          0.17049201	          0.01000093	          0.01000012	          0.07616926	          0.06144470	          0.02602017	
          0.12711423	         -6.30023640	         -3.19663574	          6.92820092	          0.15948131	          0.94330435	         -0.00846732	         26.95572625	          1.55346961	         -4.46327830	        -12.54368151	          2.94847537	          0.04069364	         -4.79027058	         -4.27510744	         -0.26558702	        -35.71660396	          1.58187281	         36.22202507	         -2.32993281	          5.54790289	         -2.92309820	          0.03557450	          0.02308659	          0.01000087	          0.09827351	          0.05905232	          0.04099143	          0.03193630	          0.08672533	          0.01302453	          0.01000248	          0.19059438	          0.01000162	          0.01000180	          0.35755951	          0.16382243	          0.01000059	          0.04719921	          0.01000014	          0.11892898	          0.01119565	          0.07963038	          0.01000016	          0.13800644	          0.01000113	          0.01000010	          0.06165577	          0.04973689	          0.06990808	
